<svg xmlns="http://www.w3.org/2000/svg" viewBox="0 0 512 512" role="img" aria-labelledby="title desc">
  <title id="title">BÁSTIO ACTIVE</title>
  <desc id="desc">Monograma BA circular da marca BÁSTIO ACTIVE.</desc>
  <rect width="512" height="512" rx="256" fill="#080706"/>
  <circle cx="256" cy="256" r="220" fill="none" stroke="#d9bea0" stroke-width="12"/>
  <circle cx="256" cy="256" r="178" fill="none" stroke="#3a3128" stroke-width="3"/>
  <path d="M150 338V154h78c22 0 39 5 51 15 12 10 18 24 18 41 0 21-10 37-30 48 25 9 37 27 37 53 0 19-7 34-21 45-14 12-33 18-57 18h-76Zm40-108h35c18 0 28-8 28-23 0-15-9-23-28-23h-35v46Zm0 77h40c20 0 30-9 30-26 0-16-10-24-31-24h-39v50Z" fill="#f7f1e8"/>
  <path d="M281 338l70-184h39l72 184h-43l-13-36h-72l-13 36h-40Zm64-68h50l-25-70-25 70Z" fill="#d9bea0"/>
</svg>
